<?xml version='1.0' encoding='iso-8859-1'?>
<svg version="1.1" xmlns="http://www.w3.org/2000/svg" viewBox="0 0 32 32" xmlns:xlink="http://www.w3.org/1999/xlink" enable-background="new 0 0 32 32">
  <g>
    <g>
      <path d="M6.031,7.375L10,15c0.543,0.977,1.344,3,3,3h6c1.217,0,1.97-1.019,2.5-2H23c2.822,0,3.924-1.388,4.91-3l1-2    c0.807-1.881-1.254-3-2.91-3h-0.4l0.291-0.565c0.012-0.023,0.025-0.044,0.035-0.068l0.012-0.023h-0.007    C25.971,7.235,26,7.122,26,7c0-0.553-0.447-1-1-1H7C6.447,6,6,6.447,6,7c0,0.133,0.028,0.259,0.076,0.375H6.031z M25.91,10    c0.553,0,1.045,0.015,1,1l-1.18,2c-0.672,0.776-1.641,0.955-2.73,1h-0.486l2.058-4H25.91z M23.406,8l-4.156,8h-6.5L8.594,8H23.406    z M31,20H1c-0.553,0-1,0.447-1,1c0,0.169,0.053,0.32,0.126,0.46H0.125c0,0,0.586,0.907,1.875,2.04C3.188,24.543,5.119,26,6.5,26    h19c1.381,0,3.404-1.463,4.5-2.5c0.727-0.688,1.19-1.305,1.574-1.704L32,21C32,20.447,31.553,20,31,20z M26,24H6l-2.543-2h25.086    L26,24z"/>
    </g>
  </g>
</svg>
