<?xml version="1.0" ?><svg viewBox="0 0 32 32" xmlns="http://www.w3.org/2000/svg"><title/><g id="Headphone"><path d="M3.57,17.35A12.21,12.21,0,0,1,3.5,16,12.38,12.38,0,0,1,6.14,8.33L6,8.2a3.45,3.45,0,0,1-.54-.73,13.41,13.41,0,0,0-3,8.53,13.79,13.79,0,0,0,.12,1.82A5.86,5.86,0,0,1,3.57,17.35Z"/><path d="M28.5,16a12.21,12.21,0,0,1-.07,1.35,5.54,5.54,0,0,1,1,.47A13.79,13.79,0,0,0,29.57,16a13.44,13.44,0,0,0-3.05-8.56,3.28,3.28,0,0,1-.56.74l-.12.13A12.33,12.33,0,0,1,28.5,16Z"/><path d="M25.2,7.42a2.41,2.41,0,0,0-.31-3.7,15.89,15.89,0,0,0-17.81,0,2.42,2.42,0,0,0-.31,3.7l.37.36a2.41,2.41,0,0,0,3.05.3,10.56,10.56,0,0,1,11.6,0,2.42,2.42,0,0,0,3.05-.3Z"/><path d="M1,22.43v2.14a4.28,4.28,0,0,0,3.21,4.15V18.28A4.28,4.28,0,0,0,1,22.43Z"/><path d="M5.29,17.23V29.77A1.24,1.24,0,0,0,6.52,31h2V16h-2A1.24,1.24,0,0,0,5.29,17.23Z"/><path d="M12.62,16h-3V31h3a1.23,1.23,0,0,0,1.24-1.23V17.23A1.23,1.23,0,0,0,12.62,16Z"/><path d="M27.79,18.28V28.72A4.28,4.28,0,0,0,31,24.57V22.43A4.28,4.28,0,0,0,27.79,18.28Z"/><path d="M25.48,16h-2V31h2a1.24,1.24,0,0,0,1.23-1.23V17.23A1.24,1.24,0,0,0,25.48,16Z"/><path d="M18.14,17.23V29.77A1.23,1.23,0,0,0,19.38,31h3.05V16H19.38A1.23,1.23,0,0,0,18.14,17.23Z"/></g></svg>